# Krystal-Stack Gemini Generated 3D Asset: acid_slime.obj
o ProceduralMesh
v 0.0000 0.2200 0.0000
v 0.5300 0.2516 0.0000
v 0.4336 0.2370 0.2504
v 0.2450 0.1557 0.4244
v 0.0000 0.1587 0.3300
v -0.2050 0.2405 0.3551
v -0.5536 0.2490 0.3196
v -0.3700 0.1684 0.0000
v -0.3458 0.1485 -0.1996
v -0.2050 0.2263 -0.3551
v -0.0000 0.2572 -0.5700
v 0.2450 0.1838 -0.4244
v 0.2258 0.1425 -0.1304
v 0.9800 0.2080 0.0000
v 0.8233 0.1324 0.4754
v 0.4700 0.0960 0.8141
v 0.0000 0.1664 0.7800
v -0.4300 0.2129 0.7448
v -0.9433 0.1490 0.5446
v -0.8200 0.0935 0.0000
v -0.7355 0.1495 -0.4246
v -0.4300 0.2129 -0.7448
v -0.0000 0.1659 -1.0200
v 0.4700 0.0958 -0.8141
v 0.6155 0.1329 -0.3554
v 1.4300 0.1063 0.0000
v 1.2131 0.0392 0.7004
v 0.6950 0.0811 1.2038
v 0.0000 0.1541 1.2300
v -0.6550 0.1226 1.1345
v -1.3331 0.0451 0.7696
v -1.2700 0.0657 0.0000
v -1.1252 0.1461 -0.6496
v -0.6550 0.1369 -1.1345
v -0.0000 0.0552 -1.4700
v 0.6950 0.0528 -1.2038
v 1.0052 0.1342 -0.5804
v 1.8800 0.0200 0.0000
v 1.6028 0.0200 0.9254
v 0.9200 0.0200 1.5935
v 0.0000 0.0200 1.6800
v -0.8800 0.0200 1.5242
v -1.7228 0.0200 0.9946
v -1.7200 0.0200 0.0000
v -1.5149 0.0200 -0.8746
v -0.8800 0.0200 -1.5242
v -0.0000 0.0200 -1.9200
v 0.9200 0.0200 -1.5935
v 1.3949 0.0200 -0.8054
f 1 2 3
f 1 3 4
f 1 4 5
f 1 5 6
f 1 6 7
f 1 7 8
f 1 8 9
f 1 9 10
f 1 10 11
f 1 11 12
f 1 12 13
f 1 13 2
f 2 14 15
f 2 15 3
f 3 15 16
f 3 16 4
f 4 16 17
f 4 17 5
f 5 17 18
f 5 18 6
f 6 18 19
f 6 19 7
f 7 19 20
f 7 20 8
f 8 20 21
f 8 21 9
f 9 21 22
f 9 22 10
f 10 22 23
f 10 23 11
f 11 23 24
f 11 24 12
f 12 24 25
f 12 25 13
f 13 25 14
f 13 14 2
f 14 26 27
f 14 27 15
f 15 27 28
f 15 28 16
f 16 28 29
f 16 29 17
f 17 29 30
f 17 30 18
f 18 30 31
f 18 31 19
f 19 31 32
f 19 32 20
f 20 32 33
f 20 33 21
f 21 33 34
f 21 34 22
f 22 34 35
f 22 35 23
f 23 35 36
f 23 36 24
f 24 36 37
f 24 37 25
f 25 37 26
f 25 26 14
f 26 38 39
f 26 39 27
f 27 39 40
f 27 40 28
f 28 40 41
f 28 41 29
f 29 41 42
f 29 42 30
f 30 42 43
f 30 43 31
f 31 43 44
f 31 44 32
f 32 44 45
f 32 45 33
f 33 45 46
f 33 46 34
f 34 46 47
f 34 47 35
f 35 47 48
f 35 48 36
f 36 48 49
f 36 49 37
f 37 49 38
f 37 38 26
