# Krystal-Stack Gemini Generated 3D Asset: aether_conduit.obj
o ProceduralMesh
v 1.1000 0.0000 0.0000
v 0.7778 0.0000 0.7778
v 0.0000 0.0000 1.1000
v -0.7778 0.0000 0.7778
v -1.1000 0.0000 0.0000
v -0.7778 0.0000 -0.7778
v -0.0000 0.0000 -1.1000
v 0.7778 0.0000 -0.7778
v 0.9900 0.4000 0.0000
v 0.7000 0.4000 0.7000
v 0.0000 0.4000 0.9900
v -0.7000 0.4000 0.7000
v -0.9900 0.4000 0.0000
v -0.7000 0.4000 -0.7000
v -0.0000 0.4000 -0.9900
v 0.7000 0.4000 -0.7000
v 0.0000 2.2000 0.0000
v 0.0000 0.6000 0.0000
v 0.4500 1.4000 0.0000
v 0.2250 1.4000 0.3897
v -0.2250 1.4000 0.3897
v -0.4500 1.4000 0.0000
v -0.2250 1.4000 -0.3897
v 0.2250 1.4000 -0.3897
f 1 9 10
f 1 10 2
f 2 10 11
f 2 11 3
f 3 11 12
f 3 12 4
f 4 12 13
f 4 13 5
f 5 13 14
f 5 14 6
f 6 14 15
f 6 15 7
f 7 15 16
f 7 16 8
f 8 16 9
f 8 9 1
f 17 19 20
f 18 20 19
f 17 20 21
f 18 21 20
f 17 21 22
f 18 22 21
f 17 22 23
f 18 23 22
f 17 23 24
f 18 24 23
f 17 24 19
f 18 19 24
