# Krystal-Stack Gemini Generated 3D Asset: capacitor_tower.obj
o ProceduralMesh
v 0.8000 0.0000 0.0000
v 0.4000 0.0000 0.6928
v -0.4000 0.0000 0.6928
v -0.8000 0.0000 0.0000
v -0.4000 0.0000 -0.6928
v 0.4000 0.0000 -0.6928
v 0.4000 2.8000 0.0000
v 0.2000 2.8000 0.3464
v -0.2000 2.8000 0.3464
v -0.4000 2.8000 0.0000
v -0.2000 2.8000 -0.3464
v 0.2000 2.8000 -0.3464
v 0.0000 3.5000 0.0000
f 1 7 8
f 1 8 2
f 2 8 9
f 2 9 3
f 3 9 10
f 3 10 4
f 4 10 11
f 4 11 5
f 5 11 12
f 5 12 6
f 6 12 7
f 6 7 1
f 13 7 8
f 13 8 9
f 13 9 10
f 13 10 11
f 13 11 12
f 13 12 7
