# Krystal-Stack Gemini Generated 3D Asset: crystal_shard.obj
o ProceduralMesh
v 0.0000 2.2000 0.0000
v 0.0000 -0.2000 0.0000
v 0.4347 0.5800 0.1165
v 0.1165 0.5800 0.4347
v -0.3182 0.5800 0.3182
v -0.4347 0.5800 -0.1165
v -0.1165 0.5800 -0.4347
v 0.3182 0.5800 -0.3182
v 0.4500 1.2000 0.3500
v 0.4500 -0.2000 0.3500
v 0.6480 0.2200 0.5480
v 0.3775 0.2200 0.6205
v 0.1795 0.2200 0.4225
v 0.2520 0.2200 0.1520
v 0.5225 0.2200 0.0795
v 0.7205 0.2200 0.2775
v -0.4000 0.9500 0.2500
v -0.4000 -0.2000 0.2500
v -0.3566 0.1475 0.4962
v -0.5915 0.1475 0.4107
v -0.6349 0.1475 0.1645
v -0.4434 0.1475 0.0038
v -0.2085 0.1475 0.0893
v -0.1651 0.1475 0.3355
v 0.0500 1.3000 -0.4500
v 0.0500 -0.3500 -0.4500
v -0.0594 0.1425 -0.1493
v -0.2651 0.1425 -0.3944
v -0.1557 0.1425 -0.6951
v 0.1594 0.1425 -0.7507
v 0.3651 0.1425 -0.5056
v 0.2557 0.1425 -0.2049
f 1 3 4
f 2 4 3
f 1 4 5
f 2 5 4
f 1 5 6
f 2 6 5
f 1 6 7
f 2 7 6
f 1 7 8
f 2 8 7
f 1 8 3
f 2 3 8
f 9 11 12
f 10 12 11
f 9 12 13
f 10 13 12
f 9 13 14
f 10 14 13
f 9 14 15
f 10 15 14
f 9 15 16
f 10 16 15
f 9 16 11
f 10 11 16
f 17 19 20
f 18 20 19
f 17 20 21
f 18 21 20
f 17 21 22
f 18 22 21
f 17 22 23
f 18 23 22
f 17 23 24
f 18 24 23
f 17 24 19
f 18 19 24
f 25 27 28
f 26 28 27
f 25 28 29
f 26 29 28
f 25 29 30
f 26 30 29
f 25 30 31
f 26 31 30
f 25 31 32
f 26 32 31
f 25 32 27
f 26 27 32
