# Krystal-Stack Gemini Generated 3D Asset: crystal_shield.obj
o ProceduralMesh
v 0.0000 0.0000 0.1200
v 1.2000 0.0000 0.0000
v 0.6000 1.0392 0.0000
v -0.6000 1.0392 0.0000
v -1.2000 0.0000 0.0000
v -0.6000 -1.0392 0.0000
v 0.6000 -1.0392 0.0000
v 0.9500 0.0000 0.0720
v 0.4750 0.8227 0.0720
v -0.4750 0.8227 0.0720
v -0.9500 0.0000 0.0720
v -0.4750 -0.8227 0.0720
v 0.4750 -0.8227 0.0720
v 0.0000 0.0000 -0.1200
v 1.0800 0.0000 -0.0600
v 0.5400 0.9353 -0.0600
v -0.5400 0.9353 -0.0600
v -1.0800 0.0000 -0.0600
v -0.5400 -0.9353 -0.0600
v 0.5400 -0.9353 -0.0600
f 1 8 9
f 8 2 3
f 8 3 9
f 1 9 10
f 9 3 4
f 9 4 10
f 1 10 11
f 10 4 5
f 10 5 11
f 1 11 12
f 11 5 6
f 11 6 12
f 1 12 13
f 12 6 7
f 12 7 13
f 1 13 8
f 13 7 2
f 13 2 8
f 14 16 15
f 2 15 16
f 2 16 3
f 14 17 16
f 3 16 17
f 3 17 4
f 14 18 17
f 4 17 18
f 4 18 5
f 14 19 18
f 5 18 19
f 5 19 6
f 14 20 19
f 6 19 20
f 6 20 7
f 14 15 20
f 7 20 15
f 7 15 2
