# Krystal-Stack Gemini Generated 3D Asset: druid_monolith.obj
o ProceduralMesh
v 0.6000 0.0000 0.0000
v 0.4808 0.0000 0.4808
v 0.0000 0.0000 0.6000
v -0.4808 0.0000 0.4808
v -0.6000 0.0000 0.0000
v -0.4808 0.0000 -0.4808
v -0.0000 0.0000 -0.6000
v 0.4808 0.0000 -0.4808
v 0.5000 1.2000 0.0000
v 0.3182 1.2000 0.3182
v 0.0000 1.2000 0.5000
v -0.3182 1.2000 0.3182
v -0.5000 1.2000 0.0000
v -0.3182 1.2000 -0.3182
v -0.0000 1.2000 -0.5000
v 0.3182 1.2000 -0.3182
v 0.3500 2.4000 0.0000
v 0.2758 2.4000 0.2758
v 0.0000 2.4000 0.3500
v -0.2758 2.4000 0.2758
v -0.3500 2.4000 0.0000
v -0.2758 2.4000 -0.2758
v -0.0000 2.4000 -0.3500
v 0.2758 2.4000 -0.2758
v 0.0000 2.6000 0.0000
v 0.0000 0.0000 0.0000
f 1 9 10
f 1 10 2
f 2 10 11
f 2 11 3
f 3 11 12
f 3 12 4
f 4 12 13
f 4 13 5
f 5 13 14
f 5 14 6
f 6 14 15
f 6 15 7
f 7 15 16
f 7 16 8
f 8 16 9
f 8 9 1
f 9 17 18
f 9 18 10
f 10 18 19
f 10 19 11
f 11 19 20
f 11 20 12
f 12 20 21
f 12 21 13
f 13 21 22
f 13 22 14
f 14 22 23
f 14 23 15
f 15 23 24
f 15 24 16
f 16 24 17
f 16 17 9
f 17 25 18
f 18 25 19
f 19 25 20
f 20 25 21
f 21 25 22
f 22 25 23
f 23 25 24
f 24 25 17
f 1 2 26
f 2 3 26
f 3 4 26
f 4 5 26
f 5 6 26
f 6 7 26
f 7 8 26
f 8 1 26
