# Krystal-Stack Gemini Generated 3D Asset: earth_roots.obj
o ProceduralMesh
v 1.1200 0.0000 0.0000
v 0.9680 0.0628 0.2092
v 0.7220 0.0388 0.1293
v 0.7220 0.0000 -0.1293
v 0.9680 0.0000 -0.2092
v 0.9092 0.5040 0.2234
v 0.7800 0.5574 0.4013
v 0.5709 0.5370 0.3333
v 0.5709 0.4710 0.1135
v 0.7800 0.4506 0.0456
v 0.6591 0.8960 0.3456
v 0.5527 0.9399 0.4920
v 0.3805 0.9232 0.4361
v 0.3805 0.8688 0.2550
v 0.5527 0.8521 0.1991
v 0.4119 1.1760 0.3666
v 0.3283 1.2105 0.4817
v 0.1930 1.1973 0.4377
v 0.1930 1.1547 0.2955
v 0.3283 1.1415 0.2515
v 0.2054 1.3440 0.3020
v 0.1446 1.3691 0.3857
v 0.0462 1.3595 0.3537
v 0.0462 1.3285 0.2503
v 0.1446 1.3189 0.2183
v 0.0677 1.4000 0.1795
v 0.0297 1.4157 0.2319
v -0.0318 1.4097 0.2119
v -0.0318 1.3903 0.1472
v 0.0297 1.3843 0.1272
v 0.0127 1.5000 0.1795
v -0.3300 0.0000 0.9526
v -0.4820 0.0628 1.1619
v -0.7280 0.0388 1.0819
v -0.7280 0.0000 0.8233
v -0.4820 0.0000 0.7434
v -0.4908 0.6480 0.6279
v -0.6201 0.7014 0.8058
v -0.8291 0.6810 0.7379
v -0.8291 0.6150 0.5180
v -0.6201 0.5946 0.4501
v -0.5204 1.1520 0.3235
v -0.6269 1.1959 0.4699
v -0.7990 1.1792 0.4140
v -0.7990 1.1248 0.2329
v -0.6269 1.1081 0.1770
v -0.4448 1.5120 0.0839
v -0.5284 1.5465 0.1990
v -0.6637 1.5333 0.1550
v -0.6637 1.4907 0.0128
v -0.5284 1.4775 -0.0312
v -0.3034 1.7280 -0.0603
v -0.3642 1.7531 0.0234
v -0.4626 1.7435 -0.0085
v -0.4626 1.7125 -0.1120
v -0.3642 1.7029 -0.1440
v -0.1428 1.8000 -0.0962
v -0.1808 1.8157 -0.0439
v -0.2423 1.8097 -0.0639
v -0.2423 1.7903 -0.1286
v -0.1808 1.7843 -0.1486
v -0.1978 1.9000 -0.0962
v -0.1800 0.0000 -0.6928
v -0.3320 0.0628 -0.4836
v -0.5780 0.0388 -0.5635
v -0.5780 0.0000 -0.8221
v -0.3320 0.0000 -0.9021
v 0.0380 0.4320 -0.6553
v -0.0912 0.4854 -0.4774
v -0.3003 0.4650 -0.5454
v -0.3003 0.3990 -0.7652
v -0.0912 0.3786 -0.8331
v 0.1955 0.7680 -0.5424
v 0.0891 0.8119 -0.3960
v -0.0831 0.7952 -0.4519
v -0.0831 0.7408 -0.6329
v 0.0891 0.7241 -0.6889
v 0.2739 1.0080 -0.3869
v 0.1903 1.0425 -0.2718
v 0.0550 1.0293 -0.3158
v 0.0550 0.9867 -0.4580
v 0.1903 0.9735 -0.5020
v 0.2683 1.1520 -0.2246
v 0.2075 1.1771 -0.1409
v 0.1091 1.1675 -0.1729
v 0.1091 1.1365 -0.2763
v 0.2075 1.1269 -0.3083
v 0.1876 1.2000 -0.0896
v 0.1496 1.2157 -0.0373
v 0.0881 1.2097 -0.0573
v 0.0881 1.1903 -0.1219
v 0.1496 1.1843 -0.1419
v 0.1326 1.3000 -0.0896
f 1 6 7
f 1 7 2
f 2 7 8
f 2 8 3
f 3 8 9
f 3 9 4
f 4 9 10
f 4 10 5
f 5 10 6
f 5 6 1
f 6 11 12
f 6 12 7
f 7 12 13
f 7 13 8
f 8 13 14
f 8 14 9
f 9 14 15
f 9 15 10
f 10 15 11
f 10 11 6
f 11 16 17
f 11 17 12
f 12 17 18
f 12 18 13
f 13 18 19
f 13 19 14
f 14 19 20
f 14 20 15
f 15 20 16
f 15 16 11
f 16 21 22
f 16 22 17
f 17 22 23
f 17 23 18
f 18 23 24
f 18 24 19
f 19 24 25
f 19 25 20
f 20 25 21
f 20 21 16
f 21 26 27
f 21 27 22
f 22 27 28
f 22 28 23
f 23 28 29
f 23 29 24
f 24 29 30
f 24 30 25
f 25 30 26
f 25 26 21
f 26 31 27
f 27 31 28
f 28 31 29
f 29 31 30
f 30 31 26
f 32 37 38
f 32 38 33
f 33 38 39
f 33 39 34
f 34 39 40
f 34 40 35
f 35 40 41
f 35 41 36
f 36 41 37
f 36 37 32
f 37 42 43
f 37 43 38
f 38 43 44
f 38 44 39
f 39 44 45
f 39 45 40
f 40 45 46
f 40 46 41
f 41 46 42
f 41 42 37
f 42 47 48
f 42 48 43
f 43 48 49
f 43 49 44
f 44 49 50
f 44 50 45
f 45 50 51
f 45 51 46
f 46 51 47
f 46 47 42
f 47 52 53
f 47 53 48
f 48 53 54
f 48 54 49
f 49 54 55
f 49 55 50
f 50 55 56
f 50 56 51
f 51 56 52
f 51 52 47
f 52 57 58
f 52 58 53
f 53 58 59
f 53 59 54
f 54 59 60
f 54 60 55
f 55 60 61
f 55 61 56
f 56 61 57
f 56 57 52
f 57 62 58
f 58 62 59
f 59 62 60
f 60 62 61
f 61 62 57
f 63 68 69
f 63 69 64
f 64 69 70
f 64 70 65
f 65 70 71
f 65 71 66
f 66 71 72
f 66 72 67
f 67 72 68
f 67 68 63
f 68 73 74
f 68 74 69
f 69 74 75
f 69 75 70
f 70 75 76
f 70 76 71
f 71 76 77
f 71 77 72
f 72 77 73
f 72 73 68
f 73 78 79
f 73 79 74
f 74 79 80
f 74 80 75
f 75 80 81
f 75 81 76
f 76 81 82
f 76 82 77
f 77 82 78
f 77 78 73
f 78 83 84
f 78 84 79
f 79 84 85
f 79 85 80
f 80 85 86
f 80 86 81
f 81 86 87
f 81 87 82
f 82 87 83
f 82 83 78
f 83 88 89
f 83 89 84
f 84 89 90
f 84 90 85
f 85 90 91
f 85 91 86
f 86 91 92
f 86 92 87
f 87 92 88
f 87 88 83
f 88 93 89
f 89 93 90
f 90 93 91
f 91 93 92
f 92 93 88
