# Krystal-Stack Gemini Generated 3D Asset: hex_tile.obj
o ProceduralMesh
v 0.8660 0.4500 -0.5000
v 0.8660 0.4500 0.5000
v 0.0000 0.4500 1.0000
v -0.8660 0.4500 0.5000
v -0.8660 0.4500 -0.5000
v -0.0000 0.4500 -1.0000
v 0.7794 0.5000 -0.4500
v 0.7794 0.5000 0.4500
v 0.0000 0.5000 0.9000
v -0.7794 0.5000 0.4500
v -0.7794 0.5000 -0.4500
v -0.0000 0.5000 -0.9000
v 0.8660 0.0000 -0.5000
v 0.8660 0.0000 0.5000
v 0.0000 0.0000 1.0000
v -0.8660 0.0000 0.5000
v -0.8660 0.0000 -0.5000
v -0.0000 0.0000 -1.0000
v 0.0000 0.4600 0.0000
v 0.0000 0.0000 0.0000
f 7 8 19
f 8 9 19
f 9 10 19
f 10 11 19
f 11 12 19
f 12 7 19
f 1 7 8
f 1 8 2
f 2 8 9
f 2 9 3
f 3 9 10
f 3 10 4
f 4 10 11
f 4 11 5
f 5 11 12
f 5 12 6
f 6 12 7
f 6 7 1
f 1 13 14
f 1 14 2
f 2 14 15
f 2 15 3
f 3 15 16
f 3 16 4
f 4 16 17
f 4 17 5
f 5 17 18
f 5 18 6
f 6 18 13
f 6 13 1
f 14 13 20
f 15 14 20
f 16 15 20
f 17 16 20
f 18 17 20
f 13 18 20
