# Krystal-Stack Gemini Generated 3D Asset: slime_pit.obj
o ProceduralMesh
v 1.2000 0.0000 0.0000
v 1.0392 0.0000 0.6000
v 0.6000 0.0000 1.0392
v 0.0000 0.0000 1.2000
v -0.6000 0.0000 1.0392
v -1.0392 0.0000 0.6000
v -1.2000 0.0000 0.0000
v -1.0392 0.0000 -0.6000
v -0.6000 0.0000 -1.0392
v -0.0000 0.0000 -1.2000
v 0.6000 0.0000 -1.0392
v 1.0392 0.0000 -0.6000
v 1.2000 0.4500 0.0000
v 1.0392 0.4500 0.6000
v 0.6000 0.4500 1.0392
v 0.0000 0.4500 1.2000
v -0.6000 0.4500 1.0392
v -1.0392 0.4500 0.6000
v -1.2000 0.4500 0.0000
v -1.0392 0.4500 -0.6000
v -0.6000 0.4500 -1.0392
v -0.0000 0.4500 -1.2000
v 0.6000 0.4500 -1.0392
v 1.0392 0.4500 -0.6000
v 0.9500 0.4500 0.0000
v 0.8227 0.4500 0.4750
v 0.4750 0.4500 0.8227
v 0.0000 0.4500 0.9500
v -0.4750 0.4500 0.8227
v -0.8227 0.4500 0.4750
v -0.9500 0.4500 0.0000
v -0.8227 0.4500 -0.4750
v -0.4750 0.4500 -0.8227
v -0.0000 0.4500 -0.9500
v 0.4750 0.4500 -0.8227
v 0.8227 0.4500 -0.4750
v 0.9500 0.2500 0.0000
v 0.8227 0.2500 0.4750
v 0.4750 0.2500 0.8227
v 0.0000 0.2500 0.9500
v -0.4750 0.2500 0.8227
v -0.8227 0.2500 0.4750
v -0.9500 0.2500 0.0000
v -0.8227 0.2500 -0.4750
v -0.4750 0.2500 -0.8227
v -0.0000 0.2500 -0.9500
v 0.4750 0.2500 -0.8227
v 0.8227 0.2500 -0.4750
v 0.0000 0.3300 0.0000
f 1 13 14
f 1 14 2
f 2 14 15
f 2 15 3
f 3 15 16
f 3 16 4
f 4 16 17
f 4 17 5
f 5 17 18
f 5 18 6
f 6 18 19
f 6 19 7
f 7 19 20
f 7 20 8
f 8 20 21
f 8 21 9
f 9 21 22
f 9 22 10
f 10 22 23
f 10 23 11
f 11 23 24
f 11 24 12
f 12 24 13
f 12 13 1
f 13 25 26
f 13 26 14
f 14 26 27
f 14 27 15
f 15 27 28
f 15 28 16
f 16 28 29
f 16 29 17
f 17 29 30
f 17 30 18
f 18 30 31
f 18 31 19
f 19 31 32
f 19 32 20
f 20 32 33
f 20 33 21
f 21 33 34
f 21 34 22
f 22 34 35
f 22 35 23
f 23 35 36
f 23 36 24
f 24 36 25
f 24 25 13
f 49 37 38
f 49 38 39
f 49 39 40
f 49 40 41
f 49 41 42
f 49 42 43
f 49 43 44
f 49 44 45
f 49 45 46
f 49 46 47
f 49 47 48
f 49 48 37
