# Krystal-Stack Gemini Generated 3D Asset: toxic_totem.obj
o ProceduralMesh
v 0.5500 0.0000 0.0000
v 0.4289 0.0000 0.4289
v 0.0000 0.0000 0.4700
v -0.4289 0.0000 0.4289
v -0.5500 0.0000 0.0000
v -0.3489 0.0000 -0.3489
v -0.0000 0.0000 -0.6300
v 0.3489 0.0000 -0.3489
v 0.4780 0.3143 0.1257
v 0.1885 0.3143 0.3230
v -0.1013 0.3143 0.3851
v -0.4182 0.3143 0.2440
v -0.3272 0.3143 -0.0861
v -0.2312 0.3143 -0.3961
v 0.1105 0.3143 -0.4201
v 0.3009 0.3143 -0.1756
v 0.3041 0.6286 0.1718
v 0.0638 0.6286 0.2296
v -0.1898 0.6286 0.3359
v -0.2776 0.6286 0.0772
v -0.2427 0.6286 -0.1371
v -0.1044 0.6286 -0.3755
v 0.1191 0.6286 -0.2109
v 0.3275 0.6286 -0.0910
v 0.1375 0.9429 0.1337
v 0.0037 0.9429 0.2619
v -0.2121 0.9429 0.2182
v -0.1742 0.9429 0.0024
v -0.2264 0.9429 -0.2201
v -0.0034 0.9429 -0.2456
v 0.1417 0.9429 -0.1457
v 0.3333 0.9429 -0.0047
v 0.0893 1.2571 0.1482
v -0.0760 1.2571 0.3063
v -0.1604 1.2571 0.0966
v -0.2195 1.2571 -0.0545
v -0.1546 1.2571 -0.2565
v 0.0378 1.2571 -0.1523
v 0.2443 1.2571 -0.1472
v 0.2391 1.2571 0.0593
v 0.0806 1.5714 0.2751
v -0.1348 1.5714 0.2466
v -0.1733 1.5714 0.0508
v -0.2880 1.5714 -0.1575
v -0.0618 1.5714 -0.2109
v 0.1082 1.5714 -0.1979
v 0.3128 1.5714 -0.0917
v 0.1564 1.5714 0.0855
v 0.0103 1.8857 0.3684
v -0.1534 1.8857 0.1623
v -0.3062 1.8857 0.0086
v -0.2428 1.8857 -0.2296
v -0.0059 1.8857 -0.2117
v 0.2453 1.8857 -0.2594
v 0.2739 1.8857 -0.0077
v 0.1789 1.8857 0.1691
v -0.0754 2.2000 0.3233
v -0.2310 2.2000 0.1436
v -0.3993 2.2000 -0.0931
v -0.1451 2.2000 -0.2334
v 0.0745 2.2000 -0.3194
v 0.3295 2.2000 -0.2048
v 0.2435 2.2000 0.0568
v 0.2033 2.2000 0.3271
v 0.0000 2.5000 0.0000
v 0.0000 0.0000 0.0000
f 1 9 10
f 1 10 2
f 2 10 11
f 2 11 3
f 3 11 12
f 3 12 4
f 4 12 13
f 4 13 5
f 5 13 14
f 5 14 6
f 6 14 15
f 6 15 7
f 7 15 16
f 7 16 8
f 8 16 9
f 8 9 1
f 9 17 18
f 9 18 10
f 10 18 19
f 10 19 11
f 11 19 20
f 11 20 12
f 12 20 21
f 12 21 13
f 13 21 22
f 13 22 14
f 14 22 23
f 14 23 15
f 15 23 24
f 15 24 16
f 16 24 17
f 16 17 9
f 17 25 26
f 17 26 18
f 18 26 27
f 18 27 19
f 19 27 28
f 19 28 20
f 20 28 29
f 20 29 21
f 21 29 30
f 21 30 22
f 22 30 31
f 22 31 23
f 23 31 32
f 23 32 24
f 24 32 25
f 24 25 17
f 25 33 34
f 25 34 26
f 26 34 35
f 26 35 27
f 27 35 36
f 27 36 28
f 28 36 37
f 28 37 29
f 29 37 38
f 29 38 30
f 30 38 39
f 30 39 31
f 31 39 40
f 31 40 32
f 32 40 33
f 32 33 25
f 33 41 42
f 33 42 34
f 34 42 43
f 34 43 35
f 35 43 44
f 35 44 36
f 36 44 45
f 36 45 37
f 37 45 46
f 37 46 38
f 38 46 47
f 38 47 39
f 39 47 48
f 39 48 40
f 40 48 41
f 40 41 33
f 41 49 50
f 41 50 42
f 42 50 51
f 42 51 43
f 43 51 52
f 43 52 44
f 44 52 53
f 44 53 45
f 45 53 54
f 45 54 46
f 46 54 55
f 46 55 47
f 47 55 56
f 47 56 48
f 48 56 49
f 48 49 41
f 49 57 58
f 49 58 50
f 50 58 59
f 50 59 51
f 51 59 60
f 51 60 52
f 52 60 61
f 52 61 53
f 53 61 62
f 53 62 54
f 54 62 63
f 54 63 55
f 55 63 64
f 55 64 56
f 56 64 57
f 56 57 49
f 57 65 58
f 58 65 59
f 59 65 60
f 60 65 61
f 61 65 62
f 62 65 63
f 63 65 64
f 64 65 57
f 1 2 66
f 2 3 66
f 3 4 66
f 4 5 66
f 5 6 66
f 6 7 66
f 7 8 66
f 8 1 66
