# Krystal-Stack Gemini Generated 3D Asset: world_tree.obj
o ProceduralMesh
v 0.5500 0.0000 0.0000
v 0.2750 0.0000 0.4763
v -0.2750 0.0000 0.4763
v -0.5500 0.0000 0.0000
v -0.2750 0.0000 -0.4763
v 0.2750 0.0000 -0.4763
v 0.4778 0.5000 0.0969
v 0.1550 0.5000 0.4622
v -0.3228 0.5000 0.3653
v -0.4778 0.5000 -0.0969
v -0.1550 0.5000 -0.4622
v 0.3228 0.5000 -0.3653
v 0.3915 1.0000 0.1655
v 0.0524 1.0000 0.4218
v -0.3391 1.0000 0.2563
v -0.3915 1.0000 -0.1655
v -0.0524 1.0000 -0.4218
v 0.3391 1.0000 -0.2563
v 0.2992 1.5000 0.2047
v -0.0277 1.5000 0.3614
v -0.3269 1.5000 0.1568
v -0.2992 1.5000 -0.2047
v 0.0277 1.5000 -0.3614
v 0.3269 1.5000 -0.1568
v 0.2090 2.0000 0.2152
v -0.0819 2.0000 0.2886
v -0.2909 2.0000 0.0734
v -0.2090 2.0000 -0.2152
v 0.0819 2.0000 -0.2886
v 0.2909 2.0000 -0.0734
v 1.3000 2.4000 0.0000
v 0.9192 2.4000 0.9192
v 0.0000 2.4000 1.3000
v -0.9192 2.4000 0.9192
v -1.3000 2.4000 0.0000
v -0.9192 2.4000 -0.9192
v -0.0000 2.4000 -1.3000
v 0.9192 2.4000 -0.9192
v 0.8694 3.2000 0.2689
v 0.4246 3.2000 0.8049
v -0.2689 3.2000 0.8694
v -0.8049 3.2000 0.4246
v -0.8694 3.2000 -0.2689
v -0.4246 3.2000 -0.8049
v 0.2689 3.2000 -0.8694
v 0.8049 3.2000 -0.4246
v 0.0000 3.6000 0.0000
f 1 7 8
f 1 8 2
f 2 8 9
f 2 9 3
f 3 9 10
f 3 10 4
f 4 10 11
f 4 11 5
f 5 11 12
f 5 12 6
f 6 12 7
f 6 7 1
f 7 13 14
f 7 14 8
f 8 14 15
f 8 15 9
f 9 15 16
f 9 16 10
f 10 16 17
f 10 17 11
f 11 17 18
f 11 18 12
f 12 18 13
f 12 13 7
f 13 19 20
f 13 20 14
f 14 20 21
f 14 21 15
f 15 21 22
f 15 22 16
f 16 22 23
f 16 23 17
f 17 23 24
f 17 24 18
f 18 24 19
f 18 19 13
f 19 25 26
f 19 26 20
f 20 26 27
f 20 27 21
f 21 27 28
f 21 28 22
f 22 28 29
f 22 29 23
f 23 29 30
f 23 30 24
f 24 30 25
f 24 25 19
f 31 39 40
f 31 40 32
f 47 40 39
f 32 40 41
f 32 41 33
f 47 41 40
f 33 41 42
f 33 42 34
f 47 42 41
f 34 42 43
f 34 43 35
f 47 43 42
f 35 43 44
f 35 44 36
f 47 44 43
f 36 44 45
f 36 45 37
f 47 45 44
f 37 45 46
f 37 46 38
f 47 46 45
f 38 46 39
f 38 39 31
f 47 39 46
